<svg width="172" height="30" viewBox="0 0 172 30" fill="none" xmlns="http://www.w3.org/2000/svg">
<path d="M12.285 0.237249L1.785 4.51461C0.705 4.95473 0 5.94499 0 7.03152V13.4957C0 21.1289 5.76 28.267 13.5 30C21.24 28.267 27 21.1289 27 13.4957V7.03152C27 5.94499 26.295 4.95473 25.215 4.51461L14.715 0.237249C13.95 -0.0790831 13.05 -0.0790831 12.285 0.237249ZM13.5 14.8573H24C23.205 20.5238 19.08 25.5713 13.5 27.153V14.8711H3V7.03152L13.5 2.75415V14.8573Z" fill="#0866FF"/>
<path d="M166.434 12.0656C167.986 12.0656 169.215 12.4895 170.12 13.3373C171.04 14.1708 171.5 15.3133 171.5 16.7647C171.5 17.2389 171.464 17.6628 171.392 18.0364C171.335 18.367 171.249 18.719 171.134 19.0927H162.791C162.777 19.1789 162.77 19.3154 162.77 19.5022C162.77 20.1345 162.942 20.6159 163.287 20.9464C163.632 21.2769 164.092 21.4422 164.667 21.4422C165.587 21.4422 166.291 21.0542 166.779 20.2782H170.702C170.185 21.4997 169.344 22.4984 168.18 23.2744C167.016 24.0504 165.709 24.4384 164.257 24.4384C162.705 24.4384 161.462 24.0073 160.528 23.1451C159.608 22.2829 159.149 21.1117 159.149 19.6315C159.149 19.1861 159.192 18.7262 159.278 18.252C159.493 17.0018 159.939 15.9096 160.614 14.9755C161.29 14.0415 162.13 13.323 163.136 12.82C164.142 12.317 165.242 12.0656 166.434 12.0656ZM167.771 17.2173C167.8 17.0161 167.814 16.8796 167.814 16.8078C167.814 16.233 167.634 15.7947 167.275 15.4929C166.916 15.1767 166.442 15.0187 165.852 15.0187C165.22 15.0187 164.66 15.2127 164.171 15.6007C163.697 15.9743 163.352 16.5132 163.136 17.2173H167.771Z" fill="#050649"/>
<path d="M146.227 18.2522C146.443 17.002 146.888 15.9099 147.564 14.9758C148.239 14.0417 149.072 13.3232 150.064 12.8202C151.07 12.3173 152.162 12.0658 153.34 12.0658C154.849 12.0658 156.042 12.461 156.919 13.2514C157.795 14.0417 158.262 15.1554 158.32 16.5925H154.397C154.239 15.6728 153.678 15.2129 152.715 15.2129C152.04 15.2129 151.458 15.4788 150.969 16.0105C150.481 16.5278 150.15 17.275 149.978 18.2522C149.92 18.554 149.892 18.8702 149.892 19.2007C149.892 19.8761 150.05 20.3934 150.366 20.7527C150.682 21.1119 151.113 21.2916 151.659 21.2916C152.608 21.2916 153.319 20.8317 153.793 19.912H157.738C157.177 21.3203 156.315 22.4268 155.151 23.2316C153.987 24.0363 152.658 24.4387 151.163 24.4387C149.611 24.4387 148.375 24.0147 147.456 23.1669C146.55 22.3047 146.098 21.1335 146.098 19.6533C146.098 19.2079 146.141 18.7408 146.227 18.2522Z" fill="#050649"/>
<path d="M140.815 12.1088C142.022 12.1088 142.97 12.4465 143.66 13.1219C144.35 13.7973 144.695 14.7385 144.695 15.9456C144.695 16.348 144.652 16.7791 144.565 17.239L143.315 24.2661H139.651L140.815 17.7348C140.858 17.4905 140.879 17.2749 140.879 17.0881C140.879 16.4845 140.707 16.0175 140.362 15.687C140.031 15.3565 139.564 15.1912 138.961 15.1912C138.242 15.1912 137.639 15.4139 137.15 15.8594C136.662 16.3049 136.345 16.93 136.202 17.7348V17.627L135.038 24.2661H131.352L133.464 12.2381H137.15L136.87 13.8548C137.344 13.3231 137.919 12.8991 138.594 12.583C139.284 12.2668 140.024 12.1088 140.815 12.1088Z" fill="#050649"/>
<path d="M117.071 18.2307C117.286 16.9948 117.71 15.9099 118.343 14.9758C118.975 14.0417 119.737 13.3232 120.628 12.8202C121.519 12.3173 122.46 12.0658 123.451 12.0658C124.299 12.0658 125.011 12.2382 125.585 12.5831C126.16 12.928 126.577 13.3807 126.836 13.9411L127.137 12.2382H130.823L128.689 24.2662H125.003L125.327 22.5633C124.867 23.1238 124.285 23.5764 123.581 23.9213C122.877 24.2662 122.101 24.4387 121.253 24.4387C120.405 24.4387 119.65 24.2447 118.989 23.8567C118.343 23.4687 117.84 22.9226 117.48 22.2184C117.121 21.4999 116.942 20.6593 116.942 19.6965C116.942 19.2366 116.985 18.748 117.071 18.2307ZM126.081 18.2522C126.124 17.9936 126.146 17.7565 126.146 17.5409C126.146 16.8368 125.937 16.2835 125.521 15.8811C125.118 15.4788 124.601 15.2776 123.969 15.2776C123.236 15.2776 122.568 15.5434 121.964 16.0751C121.36 16.5925 120.98 17.311 120.822 18.2307C120.778 18.4893 120.757 18.7265 120.757 18.942C120.757 19.6462 120.958 20.2066 121.36 20.6233C121.777 21.0257 122.295 21.2269 122.912 21.2269C123.645 21.2269 124.314 20.961 124.917 20.4293C125.521 19.8976 125.909 19.1719 126.081 18.2522Z" fill="#050649"/>
<path d="M114.575 10.9876C114 10.9876 113.54 10.8368 113.195 10.535C112.864 10.2188 112.699 9.82365 112.699 9.34943C112.699 8.70276 112.951 8.14951 113.454 7.68965C113.957 7.2298 114.567 6.99988 115.286 6.99988C115.861 6.99988 116.313 7.15795 116.644 7.4741C116.974 7.77588 117.14 8.17106 117.14 8.65965C117.14 9.29195 116.888 9.83802 116.385 10.2979C115.882 10.7577 115.279 10.9876 114.575 10.9876ZM116.17 12.2379L114.057 24.2659H110.371L112.484 12.2379H116.17Z" fill="#050649"/>
<path d="M110.518 8.31482L107.694 24.2659H104.008L106.832 8.31482H110.518Z" fill="#050649"/>
<path d="M94.8771 13.9411C95.337 13.3807 95.9118 12.928 96.6016 12.5831C97.3057 12.2382 98.0817 12.0658 98.9296 12.0658C100.223 12.0658 101.265 12.4897 102.055 13.3376C102.86 14.1854 103.262 15.3351 103.262 16.7865C103.262 17.2319 103.219 17.7133 103.133 18.2307C102.917 19.4665 102.494 20.5587 101.861 21.5071C101.229 22.4412 100.467 23.1669 99.5763 23.6842C98.6853 24.1872 97.744 24.4387 96.7525 24.4387C95.919 24.4387 95.2148 24.2662 94.64 23.9213C94.0652 23.5764 93.6413 23.131 93.3682 22.5849L92.0533 30H88.3673L91.4929 12.2382H95.1789L94.8771 13.9411ZM99.4038 18.2307C99.447 17.9864 99.4685 17.7636 99.4685 17.5625C99.4685 16.8439 99.2601 16.2835 98.8434 15.8811C98.441 15.4788 97.9237 15.2776 97.2914 15.2776C96.5585 15.2776 95.8903 15.5434 95.2867 16.0751C94.6831 16.6068 94.2951 17.3325 94.1227 18.2522C94.0796 18.5109 94.058 18.748 94.058 18.9636C94.058 19.6677 94.2592 20.221 94.6616 20.6233C95.0639 21.0257 95.5813 21.2269 96.2136 21.2269C96.9465 21.2269 97.6147 20.961 98.2183 20.4293C98.8362 19.8833 99.2314 19.1504 99.4038 18.2307Z" fill="#050649"/>
<path d="M84.0659 12.1088C85.3592 12.1088 86.3652 12.4537 87.0837 13.1434C87.8166 13.8188 88.183 14.7673 88.183 15.9888C88.183 16.3624 88.1399 16.7791 88.0537 17.239L86.8035 24.2661H83.139L84.303 17.7348C84.3317 17.5911 84.3461 17.3971 84.3461 17.1528C84.3461 16.5492 84.1737 16.0894 83.8288 15.7732C83.4982 15.4571 83.0312 15.299 82.4276 15.299C81.7091 15.299 81.1056 15.5145 80.617 15.9456C80.1284 16.3624 79.8194 16.9588 79.6901 17.7348L78.526 24.2661H74.8616L76.0256 17.7348C76.0543 17.5911 76.0687 17.3971 76.0687 17.1528C76.0687 16.5492 75.8962 16.0894 75.5514 15.7732C75.2208 15.4571 74.7538 15.299 74.1502 15.299C73.4317 15.299 72.8281 15.5145 72.3395 15.9456C71.8509 16.3624 71.542 16.9588 71.4126 17.7348V17.627L70.2486 24.2661H66.5626L68.6751 12.2381H72.3611L72.1024 13.7685C72.5623 13.2512 73.1156 12.8488 73.7622 12.5614C74.4233 12.2597 75.1346 12.1088 75.8962 12.1088C76.816 12.1088 77.592 12.3028 78.2243 12.6908C78.8709 13.0788 79.3308 13.6392 79.6038 14.3721C80.1355 13.6967 80.7966 13.1506 81.587 12.7339C82.3773 12.3171 83.2036 12.1088 84.0659 12.1088Z" fill="#050649"/>
<path d="M58.332 24.4387C57.2974 24.4387 56.3777 24.2303 55.5729 23.8136C54.7682 23.3968 54.143 22.8076 53.6976 22.046C53.2664 21.2844 53.0509 20.4006 53.0509 19.3947C53.0509 18.0295 53.3742 16.7865 54.0209 15.6656C54.6676 14.5447 55.5585 13.6681 56.6938 13.0358C57.8291 12.3891 59.0937 12.0658 60.4876 12.0658C61.5223 12.0658 62.442 12.2814 63.2468 12.7125C64.0659 13.1292 64.6982 13.7184 65.1437 14.48C65.5891 15.2416 65.8119 16.1254 65.8119 17.1313C65.8119 18.5109 65.4814 19.7611 64.8203 20.882C64.1737 21.9885 63.2755 22.8579 62.1259 23.4902C60.9906 24.1225 59.726 24.4387 58.332 24.4387ZM58.8494 21.27C59.4529 21.27 59.9918 21.0904 60.4661 20.7311C60.9547 20.3575 61.3283 19.8833 61.587 19.3085C61.86 18.7193 61.9965 18.1085 61.9965 17.4762C61.9965 16.7577 61.8025 16.2045 61.4145 15.8165C61.0265 15.4285 60.5379 15.2345 59.9487 15.2345C59.3308 15.2345 58.7847 15.4213 58.3105 15.7949C57.8506 16.1542 57.4914 16.6284 57.2327 17.2176C56.974 17.8068 56.8447 18.4247 56.8447 19.0713C56.8447 19.7755 57.0315 20.3216 57.4051 20.7096C57.7788 21.0832 58.2602 21.27 58.8494 21.27Z" fill="#050649"/>
<path d="M37.1509 16.6785C37.4096 15.184 37.9628 13.8547 38.8107 12.6907C39.6729 11.5123 40.7363 10.5998 42.0009 9.95316C43.2655 9.29213 44.6307 8.96161 46.0965 8.96161C47.8928 8.96161 49.3443 9.43583 50.4508 10.3843C51.5717 11.3327 52.204 12.626 52.3477 14.2643H48.2952C48.1084 13.6463 47.7635 13.1793 47.2605 12.8632C46.7719 12.5326 46.1684 12.3674 45.4499 12.3674C44.3146 12.3674 43.3302 12.7626 42.4967 13.5529C41.6632 14.3289 41.1315 15.3708 40.9016 16.6785C40.8297 17.0809 40.7938 17.4329 40.7938 17.7347C40.7938 18.7406 41.074 19.5382 41.6345 20.1274C42.1949 20.7166 42.9638 21.0111 43.941 21.0111C44.6451 21.0111 45.299 20.8459 45.9025 20.5154C46.5205 20.1849 47.0378 19.7106 47.4545 19.0927H51.507C50.7885 20.7309 49.7035 22.0243 48.2521 22.9727C46.8007 23.9068 45.1768 24.3738 43.3805 24.3738C42.0872 24.3738 40.9591 24.1223 39.9962 23.6194C39.0334 23.1164 38.2933 22.4051 37.776 21.4854C37.2587 20.5657 37 19.4951 37 18.2736C37 17.7275 37.0503 17.1958 37.1509 16.6785Z" fill="#050649"/>
</svg>
