<svg width="24" height="34" viewBox="0 0 24 34" fill="none" xmlns="http://www.w3.org/2000/svg">
<path d="M13.4998 20.2241C13.3116 20.2626 13.1424 20.3648 13.0209 20.5137C12.8995 20.6625 12.8331 20.8487 12.8332 21.0408V22.8333C12.8332 23.1648 12.7015 23.4828 12.467 23.7172C12.2326 23.9516 11.9147 24.0833 11.5832 24.0833C11.2516 24.0833 10.9337 23.9516 10.6993 23.7172C10.4649 23.4828 10.3332 23.1648 10.3332 22.8333V19.2316C10.3332 18.9153 10.4532 18.6108 10.669 18.3794C10.8847 18.1481 11.1801 18.0071 11.4957 17.985C12.9773 17.8816 15.1565 17.3766 16.9248 16.2491C18.6507 15.1475 19.9165 13.5116 19.9165 11.0375C19.9165 8.65414 19.0323 7.00164 17.7482 5.90581C16.4332 4.78331 14.6032 4.16831 12.6382 4.09164C8.57067 3.93248 4.77983 6.01664 4.05317 9.26164C3.98078 9.58521 3.78283 9.86677 3.50285 10.0444C3.22288 10.222 2.88381 10.2811 2.56025 10.2087C2.23668 10.1363 1.95513 9.93839 1.77751 9.65841C1.5999 9.37844 1.54078 9.03937 1.61317 8.71581C2.16817 6.23748 3.769 4.42331 5.8415 3.23581C7.92483 2.04164 10.4507 1.50414 12.7365 1.59414C15.1265 1.68748 17.5365 2.43831 19.3715 4.00414C21.2382 5.59748 22.4165 7.95748 22.4165 11.0375C22.4165 14.5691 20.5248 16.9175 18.2698 18.3566C16.7432 19.3308 15.0198 19.915 13.5007 20.2233L13.4998 20.2241ZM9.49983 30.3333C9.49983 29.6703 9.76322 29.0344 10.2321 28.5655C10.7009 28.0967 11.3368 27.8333 11.9998 27.8333C12.6629 27.8333 13.2988 28.0967 13.7676 28.5655C14.2364 29.0344 14.4998 29.6703 14.4998 30.3333C14.4998 30.9963 14.2364 31.6322 13.7676 32.1011C13.2988 32.5699 12.6629 32.8333 11.9998 32.8333C11.3368 32.8333 10.7009 32.5699 10.2321 32.1011C9.76322 31.6322 9.49983 30.9963 9.49983 30.3333Z" fill="#EC2106" stroke="#EC2106" stroke-width="2" stroke-linecap="round" stroke-linejoin="round"/>
</svg>
