<svg width="15" height="15" viewBox="0 0 15 15" fill="none" xmlns="http://www.w3.org/2000/svg">
<path d="M0.0949079 8.73952C-0.0319139 7.97501 -0.0316746 7.1948 0.0956162 6.43036C0.875491 6.44877 1.57745 6.07477 1.85016 5.41673C2.12287 4.75798 1.89124 3.99794 1.32599 3.45961C1.77678 2.82869 2.32868 2.27655 2.95941 1.82548C3.49774 2.39073 4.25849 2.62236 4.91653 2.34965C5.57528 2.07694 5.94928 1.37498 5.93016 0.595107C6.69487 0.467972 7.47532 0.467972 8.24003 0.595107C8.22162 1.37569 8.59562 2.07694 9.25366 2.34965C9.91241 2.62236 10.6725 2.39073 11.2108 1.82548C11.8417 2.27628 12.3938 2.82818 12.8449 3.4589C12.2797 3.99723 12.048 4.75798 12.3207 5.41673C12.5935 6.07548 13.2954 6.44948 14.0753 6.42965C14.2025 7.19459 14.2025 7.97529 14.0753 8.74023C13.2947 8.72111 12.5935 9.09511 12.3207 9.75315C12.048 10.4119 12.2797 11.1726 12.8449 11.711C12.3941 12.3417 11.8422 12.8936 11.2115 13.3444C10.6732 12.7791 9.91241 12.5475 9.25366 12.8202C8.59491 13.0929 8.22091 13.7949 8.24074 14.5755C7.47576 14.7025 6.69506 14.7023 5.93016 14.5748C5.94928 13.7949 5.57457 13.0929 4.91724 12.8202C4.25849 12.5475 3.49774 12.7791 2.95941 13.3444C2.32875 12.8935 1.77685 12.3416 1.32599 11.711C1.89124 11.1726 2.12287 10.4119 1.85016 9.75386C1.57745 9.09511 0.875491 8.7204 0.0949079 8.73952ZM7.08545 9.70994C7.64903 9.70994 8.18954 9.48606 8.58805 9.08754C8.98657 8.68903 9.21045 8.14852 9.21045 7.58494C9.21045 7.02135 8.98657 6.48085 8.58805 6.08234C8.18954 5.68382 7.64903 5.45994 7.08545 5.45994C6.52186 5.45994 5.98136 5.68382 5.58285 6.08234C5.18433 6.48085 4.96045 7.02135 4.96045 7.58494C4.96045 8.14852 5.18433 8.68903 5.58285 9.08754C5.98136 9.48606 6.52186 9.70994 7.08545 9.70994Z" fill="#0866FF"/>
</svg>
